<svg xmlns="http://www.w3.org/2000/svg" xmlns:xlink="http://www.w3.org/1999/xlink" width="231px" height="184px" viewBox="0 0 230 184"><g id="surface1"><path style=" stroke:none;fill-rule:nonzero;fill:rgb(4.705882%,32.156863%,4.705882%);fill-opacity:1;" d="M 80.5 92 C 105.90625 92 126.5 71.40625 126.5 46 C 126.5 20.59375 105.90625 0 80.5 0 C 55.09375 0 34.5 20.59375 34.5 46 C 34.5 71.40625 55.09375 92 80.5 92 Z M 64.078125 109.25 C 28.679688 109.25 0 137.929688 0 173.328125 C 0 179.21875 4.78125 184 10.671875 184 L 141.089844 184 C 139.148438 180.621094 138 176.703125 138 172.5 L 138 126.5 C 138 125.746094 138.035156 124.992188 138.109375 124.234375 C 126.96875 114.890625 112.59375 109.25 96.921875 109.25 Z M 189.75 86.25 C 196.109375 86.25 201.25 91.390625 201.25 97.75 L 201.25 115 L 178.25 115 L 178.25 97.75 C 178.25 91.390625 183.390625 86.25 189.75 86.25 Z M 161 97.75 L 161 115 C 154.640625 115 149.5 120.140625 149.5 126.5 L 149.5 172.5 C 149.5 178.859375 154.640625 184 161 184 L 218.5 184 C 224.859375 184 230 178.859375 230 172.5 L 230 126.5 C 230 120.140625 224.859375 115 218.5 115 L 218.5 97.75 C 218.5 81.867188 205.632812 69 189.75 69 C 173.867188 69 161 81.867188 161 97.75 Z M 161 97.75 "></path></g></svg>