<svg version="1.2" xmlns="http://www.w3.org/2000/svg" viewBox="0 0 1575 1347" width="600" height="513">
	<title>Feb-Business_9-ai</title>
	<style>
		.s0 { fill: #f7f0e3 } 
		.s1 { fill: #ffffff } 
		.s2 { fill: #e9ddca } 
		.s3 { fill: #e49b31 } 
		.s4 { fill: #fbc343 } 
		.s5 { fill: #d3dfff } 
		.s6 { fill: #102048 } 
		.s7 { fill: #f9b384 } 
		.s8 { fill: #e28b6d } 
		.s9 { fill: #3a6bea } 
		.s10 { opacity: .4;fill: #eb5d60 } 
		.s11 { fill: #1f3c88 } 
	</style>
	<g id="OBJECTS">
		<g id="&lt;Group&gt;">
			<g id="&lt;Group&gt;">
				<g id="&lt;Group&gt;">
					<path id="&lt;Path&gt;" class="s0" d="m1505.7 972.2c-25-56.9-73.1-104.4-130.8-127.8-60.1-24.4-129.2-15.5-192.5-23.6-55-7.1-94.7-31.7-127.5-75.3-31.5-41.9-59.7-88.2-111.2-107.5-40.6-15.3-86.8-11.1-127.3 4.8-74.4 29.4-130.6 91.8-178 154-43.2 56.8-78.5 118.9-158.5 121-80 2-156.2-43.7-236.8-31.6-106.5 16-195.2 104.7-213.8 210.2-17.4 99 26.3 194.9 101.4 251.3h1290.7c94.6-100.4 144.3-239.1 84.3-375.5z"/>
					<g id="&lt;Group&gt;">
						<path id="&lt;Path&gt;" class="s1" d="m338.9 1347.7h3.5c24.7-27.1 44-60 56.3-96.5 19.9-59.1 19-121.1-2.4-174.6-10.8-27.1-26.4-52.3-41.5-76.6-15.3-24.7-31.1-50.3-41.9-77.7-4.4-11.3-7.7-23.5-9.7-35.9q-1.3-0.2-2.7-0.3c2 12.8 5.4 25.4 10 37.1 10.8 27.7 26.7 53.3 42.1 78.1 15.1 24.3 30.6 49.4 41.3 76.3 21.2 52.9 22 114.3 2.3 172.8-12.4 36.9-32.1 70.1-57.3 97.3z"/>
						<path id="&lt;Path&gt;" class="s1" d="m1415.2 1235.1c26.6 5.7 52.2 10.8 77 14q0.6-1.3 1.2-2.5c-24.9-3.2-50.8-8.3-77.7-14-40.9-8.7-85.2-18.2-129.1-18.2-27.2 0-54.2 3.7-80.2 13.3-9.9 3.6-19.4 8.3-28.4 13.8-23.5-10-47.1-20.9-70.5-32.9 16.9-12.8 34.1-25.4 51.4-37.5 128.8-89.8 247.5-140.8 362.3-155.3q-0.3-1.2-0.7-2.5c-115.1 14.6-234.1 65.7-363 155.7-17.8 12.4-35.3 25.2-52.6 38.2-26.3-13.6-52.3-28.5-77.5-45-45.6-29.9-99.9-72.6-147.3-129.3 183.7-20.6 370.8-46.6 523.5-148.6 5.8-3.9 12.2-8.5 18.9-13.7q-1.1-0.8-2.2-1.5c-6.4 4.9-12.6 9.3-18.1 13-152.7 102.1-340.1 127.8-524.1 148.4-33.5-40.5-63.4-88.1-84.2-143.2-32.4-85.8-30.7-170 4.7-231.1q2.3-3.9 4.8-7.8-2.2 1-4.4 2.1-1.4 2.2-2.7 4.4c-35.7 61.7-37.5 146.8-4.8 233.3 20.7 54.8 50.3 102.2 83.5 142.7q-15.9 1.8-31.9 3.5c-38.3 4.2-77.9 8.6-116.4 13.6-14 1.8-28.3 3.9-42.5 6.5-30.4-64.2-63.9-127-107.1-180.7q-1 0.9-1.9 1.8c42.9 53.4 76.1 115.6 106.4 179.4-62 11.8-122.1 34.1-154.3 85.8-30 48.2-29.9 115 0.1 198.3q1.6 4.4 3.2 8.6h2.8c-1.2-3.1-2.4-6.2-3.5-9.4-29.8-82.6-29.9-148.6-0.4-196.2 31.8-51.1 91.6-73 153.2-84.7 10.8 22.8 21.2 45.7 31.5 68.5l1.1 2.5c35.9 79.1 72.9 155.5 121.5 219.3h3.2c-49-63.9-86.2-140.8-122.3-220.4l-1.1-2.5c-10.3-22.6-20.6-45.3-31.2-67.8 13.9-2.6 27.9-4.7 41.7-6.5 38.4-4.9 78-9.3 116.3-13.5q16.8-1.9 33.6-3.7c47.9 57.6 102.9 100.8 149 131.1 24.9 16.3 50.6 31.1 76.6 44.6-44.1 33.4-87.1 68.5-129 102.8-14.5 11.9-29.2 23.9-44 35.9h4.1c13.9-11.3 27.8-22.7 41.5-33.9 42.2-34.5 85.5-69.9 130-103.5 23.2 12 46.7 22.9 70.1 32.9-32 20.3-58 51.8-73.8 90-2 4.8-3.7 9.6-5.3 14.5h2.8c1.5-4.5 3.1-9 4.9-13.5 15.8-38.3 42.1-69.8 74.3-89.8 65.3 27.8 129.5 48.4 184.7 64.7l2.1 0.6c23.2 6.9 47 13.9 68 25.2q0.9-1 1.8-2c-21.4-11.6-45.5-18.7-69.1-25.7l-2.1-0.6c-54.6-16.2-118-36.5-182.7-63.8 8.4-5.1 17.3-9.3 26.4-12.7 67.3-24.9 142-9 207.9 5z"/>
						<path id="&lt;Path&gt;" class="s1" d="m137.2 1067c11.5 46.9 6.3 97.6-14 139-13.4 27.2-32.7 51.8-56.4 72.9q0.7 1.1 1.4 2.1c24.1-21.3 43.7-46.3 57.3-73.8 20.6-42 25.8-93.3 14.2-140.8-9.1-37.1-27.3-68.6-52.5-91.3q-0.8 1-1.7 2c24.8 22.4 42.8 53.3 51.7 89.9z"/>
					</g>
				</g>
				<path id="&lt;Path&gt;" class="s0" d="m724.6 472.6c22.6 23.1 32.8 62 20.3 97.9-12.1 34.7-38.5 63.5-70.3 82-25.6 14.9-59 23.1-84.1 7.5-18.8-11.6-28.6-34.5-29.1-56.6-0.6-22.1 6.9-43.7 16.1-63.8 12.9-28.3 30.4-55.8 56.3-73.1 35.8-23.7 69.1-16.2 90.8 6.1z"/>
			</g>
			<g id="&lt;Group&gt;">
				<path id="&lt;Compound Path&gt;" fill-rule="evenodd" class="s2" d="m237.7-16.2h187.2v83.6h-187.2zm3.9 79.8h179.4v-75.9h-179.4z"/>
				<path id="&lt;Compound Path&gt;" fill-rule="evenodd" class="s2" d="m115.9 63.8h187.2v83.6h-187.2zm3.9 79.8h179.4v-75.9h-179.4z"/>
			</g>
			<g id="&lt;Group&gt;">
				<g id="&lt;Group&gt;">
					<path id="&lt;Path&gt;" class="s3" d="m1490.2 236.6c-12.1-40.4-33.4-77.4-63.9-111.2q-45.9-50.7-125.2-83.9-79.3-33.1-201.4-33.1-97.5 0-198.7 26.3c-67.5 17.6-126 42.6-175.7 75.1l64.7 177.5-34.7 28.1 50.3 14.7q74.4-38.9 135.5-56.5 61.1-17.5 129.9-17.5 68.7 0 104.1 33.1c23.6 22.1 35.3 48.7 35.3 80 0 37.7-12.1 71.1-36.2 100.4q-36.4 43.9-80.3 88.8c-20.3 20.7-40.1 42.2-59.2 64.3-19.1 22.1-36 45.8-50.6 71.2q-22 38-35.3 81.9c-9 29.3-13.4 62.1-13.4 98.5 0 11.7 0.3 25.7 1 41.9q0.1 4.5 0.4 8.8h-47.5l51.8 35.1h252.1c-1.3-7.8-1.9-16.9-1.9-27.3q0-15.6 0-23.4 0-33.2 13.4-65.4c8.9-21.4 20.1-41.9 33.4-61.4 13.4-19.5 28.3-38 44.9-55.6 16.6-17.5 32.5-34.1 47.8-49.7q30.5-31.2 62.9-66.3c21.7-23.4 40.8-48.1 57.4-74.1 16.5-26 30.2-54.3 41-84.9 10.8-30.5 16.3-64 16.3-100.4 0-36.4-6.1-74.7-18.2-115z"/>
					<path id="&lt;Path&gt;" class="s4" d="m1017.6 243.7q-68 0-128.3 16.9-60.5 17.1-134 54.8l-79.3-213.3c49.1-31.4 106.9-55.7 173.7-72.7q100-25.4 196.3-25.4 120.7 0 199 32.1 78.4 32 123.7 81.1c30.2 32.8 51.3 68.6 63.2 107.6 12 39 18 76.1 18 111.3 0 35.3-5.4 67.7-16.1 97.2-10.7 29.6-24.2 57-40.6 82.2-16.3 25.2-35.2 49-56.6 71.7q-32.1 34-62.3 64.1-22.6 22.7-47.1 48.2c-16.4 16.9-31.2 34.9-44.4 53.7-13.2 19-24.3 38.8-33.1 59.5q-13.2 31.2-13.2 63.2 0 7.6 0 22.7c0 10.1 0.6 18.9 1.9 26.4h-249.1c-2.6-12.6-4.1-26.7-4.7-42.4-0.7-15.7-1-29.3-1-40.6 0-35.2 4.4-67 13.3-95.3q13.1-42.5 34.9-79.3c14.4-24.6 31.1-47.5 50-68.9 18.8-21.4 38.4-42.2 58.5-62.3q43.3-43.4 79.3-85.8c23.8-28.4 35.8-60.8 35.8-97.2 0-30.3-11.6-56-34.9-77.5q-34.9-32-102.9-32z"/>
				</g>
				<g id="&lt;Group&gt;">
					<path id="&lt;Path&gt;" class="s3" d="m1210.5 1204.8q0 68.2-44.1 105.3c-29.5 24.8-62.7 37.1-99.9 37.1-37.2 0-70.4-12.3-99.8-37.1-29.4-24.8-44.1-59.8-44.1-105.3 0-45.4 14.7-80.5 44.1-105.3 45.3-38.2 112.3-46.7 165.3-19.9 47.1 23.8 78.5 72.2 78.5 125.2z"/>
					<path id="&lt;Path&gt;" class="s4" d="m1161.2 1204.8q0 68.2-44.2 105.3c-29.4 24.8-62.6 37.1-99.8 37.1-37.2 0-70.4-12.3-99.9-37.1-29.3-24.8-44-59.8-44-105.3 0-45.4 14.7-80.5 44-105.3 29.5-24.7 62.7-37.1 99.9-37.1 37.2 0 70.4 12.4 99.8 37.1q44.2 37.2 44.2 105.3z"/>
				</g>
			</g>
			<g id="&lt;Group&gt;">
				<g id="&lt;Group&gt;">
					<path id="&lt;Path&gt;" class="s5" d="m410.6 540.1c8.4 12.4 5.3 29.3-7.1 37.8-12.4 8.4-29.3 5.3-37.7-7.1-8.5-12.4-5.3-29.3 7-37.7 12.4-8.5 29.3-5.3 37.8 7z"/>
					<path id="&lt;Path&gt;" class="s5" d="m427.8 611.5c-1.5 8.2-9.6 13.7-17.9 12.1-8.3-1.5-13.9-9.5-12.3-17.8 1.6-8.3 9.6-13.8 17.9-12.2 8.4 1.6 13.9 9.6 12.3 17.9z"/>
					<g id="&lt;Group&gt;">
						<path id="&lt;Path&gt;" class="s5" d="m426.2 438.5c-10.8 58-66.7 96.2-124.7 85.3-58-10.8-96.3-66.7-85.4-124.7 10.9-58.1 66.7-96.3 124.8-85.4 58 10.9 96.2 66.7 85.3 124.8z"/>
						<g id="&lt;Group&gt;">
							<path id="&lt;Path&gt;" class="s1" d="m280.1 432.2c-7.4 0-13.4-6-13.4-13.4 0-7.5 6-13.5 13.4-13.5 7.5 0 13.5 6 13.5 13.5 0 7.4-6 13.4-13.5 13.4z"/>
							<path id="&lt;Path&gt;" class="s1" d="m321.2 432.2c-7.5 0-13.5-6-13.5-13.4 0-7.5 6-13.5 13.5-13.5 7.4 0 13.4 6 13.4 13.5 0 7.4-6 13.4-13.4 13.4z"/>
							<path id="&lt;Path&gt;" class="s1" d="m362.2 432.2c-7.4 0-13.4-6-13.4-13.4 0-7.5 6-13.5 13.4-13.5 7.5 0 13.5 6 13.5 13.5 0 7.4-6 13.4-13.5 13.4z"/>
						</g>
					</g>
				</g>
				<g id="&lt;Group&gt;">
					<g id="&lt;Group&gt;">
						<g id="&lt;Group&gt;">
							<path id="&lt;Path&gt;" class="s6" d="m244.6 1293.7l10 38.5c2.6 10 12.3 16.8 23 16.1 32.8-2.2 100.8-10.3 139.9-39l-11.1-55.5c-53.7-3.1-103.9-0.1-147.4 14.6-10.9 3.6-17.2 14.5-14.4 25.3z"/>
							<path id="&lt;Path&gt;" class="s1" d="m307.2 1324.3c-0.6 0-1.1-0.3-1.3-0.9l-13.4-48c-0.2-0.7 0.2-1.4 0.9-1.6 0.7-0.2 1.4 0.2 1.6 0.9l13.4 48c0.2 0.7-0.2 1.4-0.9 1.6q-0.1 0-0.3 0z"/>
							<path id="&lt;Path&gt;" class="s1" d="m336.2 1317.9c-0.6 0-1.1-0.4-1.3-1l-13.4-48c-0.2-0.7 0.2-1.4 0.9-1.6 0.7-0.2 1.4 0.2 1.6 0.9l13.4 48c0.2 0.7-0.2 1.4-0.9 1.6q-0.2 0.1-0.3 0.1z"/>
						</g>
						<path id="&lt;Path&gt;" class="s4" d="m369.8 1085.5l-124.8 37.1 92.7 127 133.1 10.6 183.5-77.6-69.7-105z"/>
						<path id="&lt;Path&gt;" class="s4" d="m523.7 1103.2c274.1-81.1 318.1 161.1-109.5 205.2-15.1-17-32.8-46.5-39.8-71.2l225.8-104.3z"/>
						<path id="&lt;Path&gt;" class="s7" d="m535.3 1276.8c-12.8-4.1-25.1-12.2-25.1-12.2l-44 13.8 10.1 47.9 45.7 9.3c14-25.5 14.8-46.4 13.3-58.8z"/>
						<path id="&lt;Path&gt;" class="s3" d="m375.4 1238.9l-2-3.4c47.2-27.3 167.8-93.1 270.6-112.5l0.8 3.8c-102.3 19.3-222.5 84.8-269.4 112.1z"/>
						<path id="&lt;Path&gt;" class="s4" d="m369.8 1085.5c-255.1-48.5-321.1 196.7 106.5 240.8 15.1-17 26.9-37.1 33.9-61.7-65.7-44-139.1-85.8-219.6-125.6z"/>
						<path id="&lt;Path&gt;" class="s3" d="m509.2 1266.2c-12.2-7.7-24.8-15.9-38.2-24.5-67.2-43.4-143.4-92.6-208.1-120.6l1.6-3.6c65 28.2 141.3 77.4 208.6 120.9 13.4 8.6 26 16.8 38.2 24.5z"/>
						<path id="&lt;Path&gt;" class="s3" d="m182.7 1207.1l-3.4-1.9c9.5-17.3 24.9-29 45.5-34.7l1.1 3.7c-19.9 5.5-34.1 16.3-43.2 32.9z"/>
						<path id="&lt;Path&gt;" class="s3" d="m715.1 1192.3c-9.2-16.6-23.3-27.3-43.2-32.8l1-3.8c20.7 5.7 36 17.4 45.6 34.8z"/>
						<path id="&lt;Path&gt;" class="s3" d="m452.4 1324.1l-2.9-2.6c20.4-21.9 33-44.9 38.4-70.5l3.8 0.8c-5.6 26.3-18.4 50-39.3 72.3z"/>
						<g id="&lt;Group&gt;">
							<path id="&lt;Path&gt;" class="s6" d="m662.6 1262.5c-32.7-20.2-96.1 14.7-112 16.5-4.6 0.5-10-0.5-15.3-2.2 1.5 12.4 0.7 33.3-13.3 58.8l7.8 1.6c0 0 53.7 19.7 110.7 8.2 52.6-10.6 47.7-67 22.1-82.9z"/>
							<path id="&lt;Path&gt;" class="s1" d="m618 1328.6q-0.2 0-0.4-0.1c-0.7-0.2-1.1-0.9-0.8-1.6 3.8-12.3 5.5-36.5-5.7-52.8-0.4-0.5-0.3-1.4 0.3-1.8 0.6-0.4 1.4-0.2 1.8 0.4 11.8 17 10.1 42.2 6 54.9-0.1 0.6-0.6 1-1.2 1z"/>
							<path id="&lt;Path&gt;" class="s1" d="m592.4 1333.4q-0.2 0-0.4 0c-0.7-0.3-1.1-1-0.9-1.7 3.9-12.3 5.6-36.4-5.6-52.7-0.4-0.6-0.3-1.4 0.3-1.8 0.6-0.4 1.4-0.3 1.8 0.3 11.8 17 10 42.2 6 55-0.2 0.6-0.7 0.9-1.2 0.9z"/>
						</g>
					</g>
					<g id="&lt;Group&gt;">
						<g id="&lt;Group&gt;">
							<path id="&lt;Path&gt;" class="s7" d="m324.7 769.4c0 0 64.2-54.6 61.9-65-1.7-7.4-19.9 3.5-19.9 3.5 0 0 25.5-30.3 24.2-34-2.3-6.5-20 5.7-20 5.7 0 0 12-17.2 6.2-20-5.7-2.8-18.1 7.8-18.1 7.8 0 0 7.3-9.5 3.9-12-3.5-2.5-18.2 7.8-18.2 7.8 0 0 5.3-12-5.9-7.5-11.2 4.6-90 76.8-90 76.8z"/>
							<g id="&lt;Group&gt;">
								<path id="&lt;Path&gt;" class="s8" d="m351 704.7c-0.3 0-0.6-0.2-0.9-0.4-11-10.1-15.9-12.5-28-16.3-0.7-0.2-1.1-0.9-0.9-1.6 0.2-0.7 0.9-1 1.6-0.8 12.6 3.8 17.7 6.4 29.1 16.8 0.5 0.5 0.5 1.3 0 1.8-0.2 0.3-0.6 0.5-0.9 0.5z"/>
								<path id="&lt;Path&gt;" class="s8" d="m331.6 734.3q-0.1 0-0.2 0c-0.7-0.1-1.2-0.8-1.1-1.5 1.3-9 4.1-14.7 8.7-17.3 4-2.2 9.1-1.9 15.2 0.7 0.7 0.3 1 1.1 0.7 1.7-0.3 0.7-1.1 1-1.7 0.7-5.4-2.3-9.7-2.6-12.9-0.8-3.8 2.1-6.3 7.3-7.4 15.4-0.1 0.6-0.6 1.1-1.3 1.1z"/>
								<path id="&lt;Path&gt;" class="s8" d="m328.6 679.7c-0.3 0-0.7-0.2-0.9-0.4-0.5-0.6-0.5-1.4 0-1.9l16.1-15.2c0.6-0.5 1.4-0.4 1.9 0.1 0.5 0.5 0.4 1.3-0.1 1.8l-16.1 15.2c-0.3 0.3-0.6 0.4-0.9 0.4z"/>
								<path id="&lt;Path&gt;" class="s8" d="m343.5 684.9c-0.3 0-0.6-0.2-0.9-0.4-0.5-0.5-0.5-1.3 0-1.8l15.5-16.2c0.5-0.5 1.3-0.5 1.8 0 0.5 0.5 0.5 1.3 0 1.8l-15.4 16.2c-0.3 0.2-0.6 0.4-1 0.4z"/>
								<path id="&lt;Path&gt;" class="s8" d="m358.8 693.9c-0.3 0-0.7-0.1-0.9-0.3-0.5-0.5-0.6-1.3-0.1-1.8l12.2-13.1c0.5-0.5 1.3-0.5 1.8 0 0.5 0.5 0.6 1.3 0.1 1.8l-12.2 13c-0.2 0.3-0.6 0.4-0.9 0.4z"/>
							</g>
						</g>
						<g id="&lt;Group&gt;">
							<path id="&lt;Path&gt;" class="s9" d="m567.4 1134.9l-234.9 9-26-214.1c0 0 78.7-74.6 108.9-102l51.1-2.7c158.5 72.1 132.5 162 100.9 309.8z"/>
							<path id="&lt;Path&gt;" class="s9" d="m466.5 825.1c0 0 181.3 15.5 238.5 139.7 55.9 121.6-173.9 164.9-173.9 164.9z"/>
							<path id="&lt;Path&gt;" class="s9" d="m259.3 851.8l74.9-91.2-70.1-42.5c-29.2 20.3-85.7 66.4-133.6 118.5-10.6 11.5-18.8 24.9-23 39.7-3.5 12.7-4.2 25.1-2.2 37.3 5.2 31.9 30.3 56.4 63.7 60.3 28.5 3.4 137.5-5.2 225.8-31.1l25.9-100.2c-13.3-7.6-112.4-8.9-161.4 9.2z"/>
						</g>
						<g id="&lt;Group&gt;" style="opacity: .8">
							<path id="&lt;Path&gt;" class="s1" d="m617.8 874.4q0.6-0.1 1.2-0.2-1.3-0.8-2.5-1.5c-13.3 3.1-27 6.2-40.5 7.8-8.1 1-35.3 2.8-43.2-15.3-3.9-9-0.9-19 3.5-26q-1-0.3-1.9-0.5c-4.6 7.4-7.5 17.8-3.4 27.3 8.5 19.3 36.8 17.5 45.2 16.5 13.9-1.7 28-4.9 41.6-8.1z"/>
							<path id="&lt;Path&gt;" class="s1" d="m702.4 1014.5c-8.7-3.3-17.6-6.8-27-5.9-16.5 1.6-30.6 17.9-31.5 36.4-0.6 12.6 4.3 25.8 13.4 37.4q0.9-0.5 1.7-1c-9-11.3-13.7-24.1-13.1-36.3 0.8-17.6 14.1-33.1 29.7-34.6 8.9-0.8 17.3 2.4 26.1 5.8 3.2 1.3 6.4 2.5 9.6 3.5q0.3-0.9 0.5-1.9c-3.2-1-6.3-2.2-9.4-3.4z"/>
							<path id="&lt;Path&gt;" class="s1" d="m244.8 952.6c-11.3-9.4-28.9-11.9-48.2-6.9-17.3 4.5-32 13.3-42.2 25 0.7 0.2 1.3 0.5 2 0.7 9.9-11.1 24.1-19.5 40.7-23.8 18.7-4.8 35.6-2.5 46.5 6.5 5.1 4.3 8.8 9.8 11.4 15.8q1-0.2 2-0.3c-2.7-6.4-6.6-12.4-12.2-17z"/>
							<path id="&lt;Path&gt;" class="s1" d="m142.5 823.9c21.2-5.3 41.9-12.7 61-23.7 7.2-4.2 15.3-9.5 21.1-17.2 6.1-8.3 8.1-18.2 5.4-26.4-1.1-3.2-3-6-5.3-8.3q-0.7 0.6-1.5 1.2c2.2 2.1 4 4.7 4.9 7.7 2.5 7.6 0.6 16.8-5.1 24.6-5.5 7.5-13.4 12.6-20.5 16.7-18 10.4-37.5 17.5-57.5 22.7q-1.2 1.3-2.5 2.7z"/>
						</g>
						<g id="&lt;Group&gt;">
							<path id="&lt;Path&gt;" class="s7" d="m483.1 777.5v3.4l-0.6 51.6v5.6c-0.1 8.7-3.7 16.7-9.5 22.4-5.8 5.7-13.7 9.3-22.5 9.4-17.7 0.1-32.2-14.1-32.3-31.9l-0.7-63.8z"/>
							<path id="&lt;Path&gt;" class="s6" d="m483.1 780.9l-0.6 51.6c-28.7-11.7-40.5-42.8-40.5-42.8z"/>
							<path id="&lt;Path&gt;" class="s7" d="m494.4 690.8c10.3 12.3 40.3 82.2 9.9 106.1-34.3 26.8-86.4-17.3-86.4-17.3l-7-81.4 45.3-12z"/>
							<path id="&lt;Path&gt;" class="s6" d="m387.9 686.3c0 0-100.4 52.3-18.6 203.2 10.5 19.4 33.8 27.8 53.7 18.4 21.4-10.2 29.5-36.3 17.9-56.9-13.4-23.8-26.3-54.4-20.8-77.2z"/>
							<path id="&lt;Path&gt;" class="s4" d="m397.3 738.2c-15 0-27.1-12.1-27.1-27.2 0-15 12.1-27.1 27.1-27.1 15.1 0 27.2 12.1 27.2 27.1 0 15.1-12.1 27.2-27.2 27.2z"/>
							<path id="&lt;Path&gt;" class="s6" d="m430.7 743.7c-2.9-17-4.7-28.6 12.4-37.3 0 0 60.4 11 71.9-11.8 11.5-22.8-6-58.7-42.8-33.7-94.1-18.4-106.7 69.6-78.1 99l28.1-4.4c5.7-0.8 9.5-6.2 8.5-11.8z"/>
							<g id="&lt;Group&gt;">
								<path id="&lt;Path&gt;" class="s6" d="m477.4 747.7c-2.2 0-4-1.8-4-4 0-2.2 1.8-4 4-4 2.3 0 4.1 1.8 4.1 4 0 2.2-1.8 4-4.1 4z"/>
								<path id="&lt;Path&gt;" class="s6" d="m504.6 734.4c-2.2 0-4-1.8-4-4.1 0-2.2 1.8-4 4-4 2.2 0 4 1.8 4 4 0 2.3-1.8 4.1-4 4.1z"/>
								<path id="&lt;Path&gt;" class="s6" d="m501.8 756.1q-0.4 0-0.8-0.4c-0.4-0.4-0.4-1.1 0-1.6 1.6-1.7 3.4-4 2.6-5.8-0.7-1.8-4-2.5-5.5-2.5-3.2 0-4.7-5.7-5-6.9-0.1-0.6 0.2-1.2 0.8-1.3 0.7-0.2 1.3 0.2 1.4 0.8 0.6 2.4 1.9 5.1 2.8 5.1 1.5 0 6.2 0.7 7.6 3.9 1 2.3 0 5.1-3.1 8.3-0.2 0.2-0.5 0.4-0.8 0.4z"/>
								<path id="&lt;Path&gt;" class="s6" d="m502 771.3q-0.3 0-0.6-0.2c-7.6-5.1-15.2-0.8-15.3-0.8-0.5 0.3-1.2 0.1-1.5-0.4-0.3-0.6-0.1-1.3 0.4-1.6 0.4-0.2 8.9-5 17.7 0.9 0.5 0.3 0.6 1.1 0.3 1.6-0.3 0.3-0.6 0.5-1 0.5z"/>
								<path id="&lt;Path&gt;" class="s6" d="m475.7 726.3c2.3 4.3-1.7 5.2-6.4 7.7-4.6 2.4-9.4 3.4-10.5 1.3-1.1-2 1.8-5.7 6.5-8.2 4.6-2.5 8.6-4.1 10.4-0.8z"/>
								<path id="&lt;Path&gt;" class="s6" d="m492.7 718.6c1 3.8 3.8 2.1 8 1.1 4.2-1.1 7.5-3.2 7-5-0.4-1.9-4.2-2.5-8.4-1.4-4.1 1.1-7.4 2.3-6.6 5.3z"/>
							</g>
							<path id="&lt;Path&gt;" class="s10" d="m458.9 774.3c-6.5 0-11.8-5.3-11.8-11.9 0-6.5 5.3-11.8 11.8-11.8 6.6 0 11.9 5.3 11.9 11.8 0 6.6-5.3 11.9-11.9 11.9z"/>
							<path id="&lt;Path&gt;" class="s7" d="m423.8 749.8c8 6.1 10 16.8 4.6 23.8-5.4 7-16.2 7.7-24.2 1.6-7.9-6.2-10-16.8-4.6-23.8 5.4-7.1 16.3-7.8 24.2-1.6z"/>
							<path id="&lt;Path&gt;" class="s6" d="m421.1 768.4c-0.7 0-1.2-0.5-1.2-1.1 0-3.4-1.6-6.5-4.3-8.3-2.4-1.6-5.2-2-7.5-1-0.6 0.2-1.2-0.1-1.5-0.6-0.2-0.6 0.1-1.3 0.6-1.5 3.1-1.3 6.7-0.8 9.6 1.2 3.4 2.3 5.4 6.1 5.4 10.2 0 0.6-0.5 1.1-1.1 1.1z"/>
						</g>
						<g id="&lt;Group&gt;">
							<path id="&lt;Path&gt;" class="s6" d="m219.2 897l-1.9-1.8 41-44.3 1.9 1.7z"/>
							<path id="&lt;Path&gt;" class="s6" d="m547 1041.4l-0.8-2.5c29.9-9.1 58.8-20 85.1-52.8l2 1.6c-26.7 33.4-56.1 44.5-86.3 53.7z"/>
						</g>
					</g>
					<g id="&lt;Group&gt;">
						<g id="&lt;Group&gt;">
							<path id="&lt;Path&gt;" class="s5" d="m565.1 940.9h-253.7c-9.1 0-16.5 8-16.5 17.8v181.2c0 9.9 7.4 17.9 16.5 17.9h253.7c9.2 0 16.6-8 16.6-17.9v-181.2c0-9.8-7.4-17.8-16.6-17.8z"/>
						</g>
						<g id="&lt;Group&gt;">
							<path id="&lt;Compound Path&gt;" fill-rule="evenodd" class="s11" d="m417.9 1039.5c0-3.8 3.1-6.8 6.8-6.8h27.1c3.7 0 6.8 3 6.8 6.8v19.6c0 3.8-3.1 6.9-6.8 6.9h-27.1c-3.7 0-6.8-3.1-6.8-6.9zm5.2 19.5c0 1 0.8 1.8 1.8 1.8h26.7c1 0 1.8-0.8 1.8-1.8v-19.3c0-1-0.8-1.8-1.8-1.8h-26.7c-1 0-1.8 0.8-1.8 1.8z"/>
						</g>
					</g>
				</g>
			</g>
			<path id="&lt;Path&gt;" class="s6" d="m20 1345.1h1530v5.2h-1530z"/>
		</g>
	</g>
</svg>